<?xml version="1.0" encoding="iso-8859-1"?>
<!-- Uploaded to: SVG Repo, www.svgrepo.com, Generator: SVG Repo Mixer Tools -->
<svg fill="#000000" version="1.1" id="Layer_1" xmlns="http://www.w3.org/2000/svg" xmlns:xlink="http://www.w3.org/1999/xlink" 
	 viewBox="0 0 512 512" xml:space="preserve">
<g>
	<g>
		<path d="M512,73.519V42.237h-53.16V0.527h-72.941h-31.282H189.765v271.159h82.425v167.972c0,22.35-18.183,40.533-40.533,40.533
			H115.424c-16.494,0-29.914-13.419-29.914-29.914V294.486h55.61V187.111h-15.204v-63.392H15.204v63.392H0v107.376h54.227v155.79
			c0,33.744,27.452,61.197,61.197,61.197h116.234c39.599,0,71.815-32.217,71.815-71.815V271.686h82.425v-91.807h72.941v-41.71H512
			v-31.282h-53.16V73.519H512z M46.487,155.001h48.146v32.109H46.487V155.001z M31.282,263.204v-0.001v-44.81h78.553v44.811H31.282z
			 M354.616,179.879v60.524H221.047V31.809h133.569V179.879z M427.557,148.597h-41.659V31.809h41.659V148.597z"/>
	</g>
</g>
<g>
	<g>
		<rect x="51.923" y="163.284" width="15.347" height="13.243"/>
	</g>
</g>
<g>
	<g>
		<rect x="73.846" y="163.284" width="15.347" height="13.243"/>
	</g>
</g>
</svg>